<?xml version="1.0" standalone="no"?><!DOCTYPE svg PUBLIC "-//W3C//DTD SVG 1.1//EN" "http://www.w3.org/Graphics/SVG/1.1/DTD/svg11.dtd"><svg class="icon" width="16px" height="16.00px" viewBox="0 0 1024 1024" version="1.1" xmlns="http://www.w3.org/2000/svg"><path fill="#333333" d="M512 198.4l96 147.2 25.6 38.4 44.8 12.8 172.8 51.2-108.8 134.4-32 38.4v51.2l6.4 172.8-166.4-64-38.4-19.2-44.8 19.2-166.4 64 6.4-172.8v-51.2l-25.6-38.4L172.8 448l166.4-44.8 44.8-12.8 25.6-38.4L512 198.4M512 25.6c-19.2 0-44.8 6.4-57.6 25.6L307.2 275.2l-256 70.4c-25.6 6.4-38.4 25.6-44.8 44.8-6.4 19.2 0 44.8 12.8 64l166.4 211.2-12.8 268.8c0 25.6 6.4 44.8 25.6 57.6 12.8 6.4 25.6 12.8 38.4 12.8 6.4 0 19.2 0 25.6-6.4L512 902.4l249.6 96c6.4 0 12.8 6.4 25.6 6.4s25.6-6.4 38.4-12.8c19.2-12.8 25.6-32 25.6-57.6l-12.8-268.8 166.4-211.2c12.8-19.2 19.2-38.4 12.8-64-6.4-19.2-25.6-38.4-44.8-44.8l-262.4-70.4L569.6 51.2C556.8 32 531.2 25.6 512 25.6z" /></svg>